<?xml version="1.0" encoding="UTF-8"?>
<svg width="800" height="450" viewBox="0 0 800 450" fill="none" xmlns="http://www.w3.org/2000/svg">
    <!-- 背景 -->
    <rect width="800" height="450" fill="#F3F4F6"/>
    
    <!-- 中心面板 -->
    <rect x="250" y="125" width="300" height="200" rx="12" fill="#FFFFFF" stroke="#4F46E5" stroke-width="2"/>
    
    <!-- 左侧图标 -->
    <rect x="100" y="175" width="100" height="100" rx="8" fill="#E0E7FF"/>
    <path d="M130 225 L170 225 M150 205 L150 245" stroke="#4F46E5" stroke-width="3"/>
    
    <!-- 右侧图标 -->
    <rect x="600" y="175" width="100" height="100" rx="8" fill="#E0E7FF"/>
    <path d="M630 225 L670 225 M650 205 L650 245" stroke="#4F46E5" stroke-width="3"/>
    
    <!-- 连接线 -->
    <path d="M200 225 L250 225" stroke="#4F46E5" stroke-width="2" stroke-dasharray="4 4"/>
    <path d="M550 225 L600 225" stroke="#4F46E5" stroke-width="2" stroke-dasharray="4 4"/>
    
    <!-- 面板内容 -->
    <rect x="270" y="145" width="260" height="40" rx="6" fill="#F3F4F6"/>
    <rect x="270" y="195" width="260" height="40" rx="6" fill="#F3F4F6"/>
    <rect x="270" y="245" width="260" height="40" rx="6" fill="#F3F4F6"/>
    
    <!-- 标题 -->
    <text x="400" y="100" font-family="Arial" font-size="24" fill="#4F46E5" text-anchor="middle" font-weight="bold">代理面板</text>
</svg> 